<svg width="52" height="52" viewBox="0 0 52 52" fill="none" xmlns="http://www.w3.org/2000/svg">
<path d="M40.2827 43.2861L45.3023 45.743C46.5622 46.3596 48.0875 45.8118 48.5833 44.4996C50.0226 40.6902 51.1539 36.1411 51.5376 31.4578C51.9761 26.1052 51.434 20.6323 49.3121 15.8965L49.3092 15.8978C49.2149 15.6938 49.119 15.4903 49.0216 15.2875C48.2916 13.8847 46.9241 12.1643 44.9102 11.0259C42.6403 9.74281 39.487 9.16211 35.349 10.7146C34.4711 11.0439 33.5774 11.4695 32.6812 11.9772C33.8069 13.8955 34.6133 16.4825 34.6774 19.8939C34.7353 22.977 34.2359 25.8967 33.4708 28.498L41.0097 31.3015C42.5529 31.8753 43.5631 33.4011 43.2746 35.022C42.8711 37.2887 42.1616 39.4948 41.1704 41.5863C40.9019 42.1529 40.6067 42.7216 40.2827 43.2861Z" fill="#FFFFFE"/>
<path d="M15.688 41.2376C16.3073 41.0508 16.9613 40.7808 17.6477 40.4052C20.5544 38.8145 22.7528 36.2171 24.3156 33.6691C25.3568 31.9714 26.1328 30.2682 26.6576 28.8444C26.8674 28.2753 27.4955 27.9665 28.064 28.178L40.118 32.6605C41.182 33.0562 41.8523 34.1261 41.6228 35.2379C41.2784 36.9066 40.6768 38.8995 39.7266 40.9044C38.2338 44.0543 35.9075 47.1792 32.4267 49.1544C29.5505 50.7865 26.609 51.6285 23.8592 51.755C20.8632 51.2472 18.8976 49.9448 17.6455 48.2053C16.3197 46.3637 15.7302 43.9435 15.688 41.2376Z" fill="#FFFFFE"/>
<path d="M22.9691 0.231723C30.3716 -0.635907 35.872 1.00443 40.047 3.95706C42.2653 5.52591 44.1283 7.47869 45.7083 9.65613L45.6913 9.6465C42.9965 8.12322 39.3508 7.51952 34.7896 9.23074C28.6664 11.528 22.0654 18.0015 18.551 24.6031C16.2716 28.885 14.0237 35.4508 14.1086 41.2459C14.1512 44.1506 14.7813 46.9348 16.3647 49.1342C16.9159 49.8999 17.575 50.5841 18.3499 51.1727C12.7112 49.7678 5.61622 45.856 1.79259 36.8391C-1.5442 28.9703 0.0423557 20.2599 4.36559 13.2591C8.69543 6.24754 15.6876 1.08516 22.9691 0.231723Z" fill="#FFFFFE"/>
</svg>
