<svg width="157" height="52" viewBox="0 0 157 52" fill="none" xmlns="http://www.w3.org/2000/svg">
<path d="M40.2827 43.2861L45.3023 45.743C46.5622 46.3596 48.0875 45.8118 48.5833 44.4996C50.0226 40.6902 51.1539 36.1411 51.5376 31.4578C51.9761 26.1052 51.434 20.6323 49.3121 15.8965L49.3092 15.8978C49.2149 15.6938 49.119 15.4903 49.0216 15.2875C48.2916 13.8847 46.9241 12.1643 44.9102 11.0259C42.6403 9.74281 39.487 9.16211 35.349 10.7146C34.4711 11.0439 33.5774 11.4695 32.6812 11.9772C33.8069 13.8955 34.6133 16.4825 34.6774 19.8939C34.7353 22.977 34.2359 25.8967 33.4708 28.498L41.0097 31.3015C42.5529 31.8753 43.5631 33.4011 43.2746 35.022C42.8711 37.2887 42.1616 39.4948 41.1704 41.5863C40.9019 42.1528 40.6067 42.7216 40.2827 43.2861Z" fill="#FFFFFE"/>
<path d="M15.688 41.2376C16.3073 41.0508 16.9613 40.7808 17.6477 40.4052C20.5544 38.8145 22.7528 36.2171 24.3156 33.6691C25.3568 31.9714 26.1328 30.2682 26.6576 28.8444C26.8674 28.2753 27.4955 27.9665 28.064 28.178L40.118 32.6605C41.182 33.0562 41.8523 34.1261 41.6228 35.2379C41.2784 36.9066 40.6768 38.8995 39.7266 40.9044C38.2338 44.0543 35.9075 47.1792 32.4267 49.1544C29.5505 50.7865 26.609 51.6285 23.8592 51.755C20.8632 51.2472 18.8976 49.9448 17.6455 48.2053C16.3197 46.3637 15.7302 43.9435 15.688 41.2376Z" fill="#FFFFFE"/>
<path d="M22.9691 0.231723C30.3716 -0.635907 35.872 1.00443 40.047 3.95706C42.2653 5.52591 44.1283 7.47869 45.7083 9.65613L45.6913 9.6465C42.9965 8.12322 39.3508 7.51952 34.7896 9.23074C28.6664 11.528 22.0654 18.0015 18.551 24.6031C16.2716 28.885 14.0237 35.4508 14.1086 41.2459C14.1512 44.1506 14.7813 46.9348 16.3647 49.1342C16.9159 49.8999 17.575 50.5841 18.3499 51.1727C12.7112 49.7678 5.61622 45.856 1.79259 36.8391C-1.5442 28.9703 0.0423557 20.2599 4.36559 13.2591C8.69543 6.24754 15.6876 1.08516 22.9691 0.231723Z" fill="#FFFFFE"/>
<path d="M149.647 7.65625H156.369V43.4568H149.647V7.65625Z" fill="#FFFFFE"/>
<path d="M139.098 16.96H145.869V43.4572H139.098V16.96ZM139.001 7.85156H145.966V14.0862H139.001V7.85156Z" fill="#FFFFFE"/>
<path d="M117.16 35.7627C117.16 36.8343 117.55 37.6461 118.329 38.1981C119.141 38.7177 120.229 38.9774 121.593 38.9774C123.768 38.9774 125.506 38.3605 126.804 37.1265C128.103 35.8926 128.753 34.2527 128.753 32.207V30.9406L121.3 32.3531C119.807 32.6454 118.735 33.0675 118.086 33.6195C117.469 34.1391 117.16 34.8535 117.16 35.7627ZM110.244 36.6881C110.244 34.4476 110.991 32.7103 112.484 31.4764C114.01 30.21 116.316 29.3007 119.401 28.7487L128.753 27.0439V26.8491C128.753 25.0631 128.266 23.7318 127.292 22.855C126.317 21.9783 124.954 21.5399 123.2 21.5399C121.414 21.5399 120.05 21.9783 119.109 22.855C118.199 23.7318 117.647 24.9657 117.452 26.5568H110.585C110.877 23.2122 112.16 20.6794 114.433 18.9584C116.706 17.2049 119.644 16.3281 123.249 16.3281C127.113 16.3281 130.1 17.2861 132.211 19.2019C134.354 21.0853 135.426 23.8129 135.426 27.3849V43.4586H129.142L128.996 39.5619C128.184 40.8608 126.902 41.9486 125.148 42.8254C123.427 43.6696 121.43 44.0918 119.157 44.0918C117.956 44.0918 116.803 43.9457 115.699 43.6534C114.627 43.3612 113.686 42.9228 112.874 42.3383C112.062 41.7213 111.413 40.9582 110.926 40.049C110.471 39.1073 110.244 37.987 110.244 36.6881Z" fill="#FFFFFE"/>
<path d="M82.9482 16.9609H90.0596L96.9275 37.3697L103.844 16.9609H111.004L101.263 43.4582H92.6412L82.9482 16.9609Z" fill="#FFFFFE"/>
<path d="M64.7891 35.7627C64.7891 36.8343 65.1788 37.6461 65.9581 38.1981C66.7699 38.7177 67.8577 38.9774 69.2216 38.9774C71.3972 38.9774 73.1345 38.3605 74.4333 37.1265C75.7322 35.8926 76.3817 34.2527 76.3817 32.207V30.9406L68.9293 32.3531C67.4356 32.6454 66.364 33.0675 65.7146 33.6195C65.0976 34.1391 64.7891 34.8535 64.7891 35.7627ZM57.8726 36.6881C57.8726 34.4476 58.6194 32.7103 60.1131 31.4764C61.6393 30.21 63.9448 29.3007 67.0297 28.7487L76.3817 27.0439V26.8491C76.3817 25.0631 75.8946 23.7318 74.9204 22.855C73.9463 21.9783 72.5824 21.5399 70.8289 21.5399C69.043 21.5399 67.6791 21.9783 66.7374 22.855C65.8282 23.7318 65.2762 24.9657 65.0814 26.5568H58.2135C58.5058 23.2122 59.7884 20.6794 62.0615 18.9584C64.3345 17.2049 67.2732 16.3281 70.8776 16.3281C74.7418 16.3281 77.7293 17.2861 79.8399 19.2019C81.9831 21.0853 83.0547 23.8129 83.0547 27.3849V43.4586H76.7713L76.6252 39.5619C75.8134 40.8608 74.5308 41.9486 72.7773 42.8254C71.0562 43.6696 69.0592 44.0918 66.7862 44.0918C65.5847 44.0918 64.4319 43.9457 63.3279 43.6534C62.2563 43.3612 61.3146 42.9228 60.5028 42.3383C59.691 41.7213 59.0416 40.9582 58.5545 40.049C58.0999 39.1073 57.8726 37.987 57.8726 36.6881Z" fill="#FFFFFE"/>
</svg>
